<svg xmlns="http://www.w3.org/2000/svg" viewBox="0 0 647 7"><defs><style>.cls-1{fill:#2c3e50;}.cls-2{fill:#34495e;}</style></defs><title>Asset 1</title><g id="Layer_2" data-name="Layer 2"><g id="Layer_1-2" data-name="Layer 1"><line class="cls-1" y1="3.5" x2="647" y2="3.5"/><path class="cls-2" d="M0,3.5C53.92,2.05,107.83,1.29,161.75.78c27-.33,53.92-.4,80.87-.59L323.5,0l80.88.18c26.95.2,53.91.26,80.87.59C539.17,1.28,593.08,2,647,3.5,593.08,5,539.17,5.72,485.25,6.23c-27,.32-53.92.39-80.87.58L323.5,7l-80.88-.2c-27-.19-53.91-.26-80.87-.58C107.83,5.7,53.92,5,0,3.5Z"/></g></g></svg>